<svg width="24" height="25" viewBox="0 0 24 25" fill="none" xmlns="http://www.w3.org/2000/svg">
<path d="M20.625 2.90625H3.375C2.96016 2.90625 2.625 3.24141 2.625 3.65625V20.9062C2.625 21.3211 2.96016 21.6562 3.375 21.6562H20.625C21.0398 21.6562 21.375 21.3211 21.375 20.9062V3.65625C21.375 3.24141 21.0398 2.90625 20.625 2.90625ZM19.875 20.1562H15.5602V14.3953H17.9977L18.3633 11.5664H15.5602V9.75937C15.5602 8.93906 15.7875 8.38125 16.9617 8.38125H18.4594V5.85C18.1992 5.81484 17.3109 5.7375 16.275 5.7375C14.1141 5.7375 12.6352 7.05703 12.6352 9.47812V11.5641H10.193V14.393H12.6375V20.1562H4.125V4.40625H19.875V20.1562Z" fill="black"/>
</svg>
