<svg width="24" height="25" viewBox="0 0 24 25" fill="none" xmlns="http://www.w3.org/2000/svg">
<path d="M19.05 5.1913C18.1331 4.26541 17.0411 3.53127 15.8376 3.03167C14.634 2.53206 13.3431 2.27699 12.04 2.2813C6.58005 2.2813 2.13005 6.7313 2.13005 12.1913C2.13005 13.9413 2.59005 15.6413 3.45005 17.1413L2.05005 22.2813L7.30005 20.9013C8.75005 21.6913 10.38 22.1113 12.04 22.1113C17.5 22.1113 21.9501 17.6613 21.9501 12.2013C21.9501 9.5513 20.92 7.0613 19.05 5.1913ZM12.04 20.4313C10.56 20.4313 9.11005 20.0313 7.84005 19.2813L7.54005 19.1013L4.42005 19.9213L5.25005 16.8813L5.05005 16.5713C4.2276 15.2584 3.79097 13.7406 3.79005 12.1913C3.79005 7.6513 7.49005 3.9513 12.03 3.9513C14.23 3.9513 16.3 4.8113 17.85 6.3713C18.6177 7.13517 19.226 8.04385 19.6397 9.04463C20.0534 10.0454 20.2642 11.1184 20.26 12.2013C20.28 16.7413 16.58 20.4313 12.04 20.4313ZM16.56 14.2713C16.31 14.1513 15.09 13.5513 14.87 13.4613C14.64 13.3813 14.48 13.3413 14.31 13.5813C14.14 13.8313 13.67 14.3913 13.53 14.5513C13.39 14.7213 13.24 14.7413 12.99 14.6113C12.74 14.4913 11.94 14.2213 11 13.3813C10.26 12.7213 9.77005 11.9113 9.62005 11.6613C9.48005 11.4113 9.60005 11.2813 9.73005 11.1513C9.84005 11.0413 9.98005 10.8613 10.1 10.7213C10.22 10.5813 10.27 10.4713 10.35 10.3113C10.43 10.1413 10.39 10.0013 10.33 9.8813C10.27 9.7613 9.77005 8.5413 9.57005 8.0413C9.37005 7.5613 9.16005 7.6213 9.01005 7.6113H8.53005C8.36005 7.6113 8.10005 7.6713 7.87005 7.9213C7.65005 8.1713 7.01005 8.7713 7.01005 9.9913C7.01005 11.2113 7.90005 12.3913 8.02005 12.5513C8.14005 12.7213 9.77005 15.2213 12.25 16.2913C12.84 16.5513 13.3 16.7013 13.66 16.8113C14.25 17.0013 14.79 16.9713 15.22 16.9113C15.7 16.8413 16.69 16.3113 16.89 15.7313C17.1 15.1513 17.1 14.6613 17.03 14.5513C16.96 14.4413 16.81 14.3913 16.56 14.2713Z" fill="black"/>
</svg>
