<svg width="24" height="25" viewBox="0 0 24 25" fill="none" xmlns="http://www.w3.org/2000/svg">
<path d="M3 11.2812C3 7.51025 3 5.62425 4.172 4.45325C5.344 3.28225 7.229 3.28125 11 3.28125H13C16.771 3.28125 18.657 3.28125 19.828 4.45325C20.999 5.62525 21 7.51025 21 11.2812V13.2812C21 17.0522 21 18.9382 19.828 20.1092C18.656 21.2802 16.771 21.2812 13 21.2812H11C7.229 21.2812 5.343 21.2812 4.172 20.1092C3.001 18.9372 3 17.0522 3 13.2812V11.2812Z" stroke="black" stroke-width="2"/>
<path d="M17.5 7.78125C17.5 8.33353 17.0523 8.78125 16.5 8.78125C15.9477 8.78125 15.5 8.33353 15.5 7.78125C15.5 7.22897 15.9477 6.78125 16.5 6.78125C17.0523 6.78125 17.5 7.22897 17.5 7.78125Z" fill="black" stroke="black"/>
<path d="M12 15.2812C13.6569 15.2812 15 13.9381 15 12.2812C15 10.6244 13.6569 9.28125 12 9.28125C10.3431 9.28125 9 10.6244 9 12.2812C9 13.9381 10.3431 15.2812 12 15.2812Z" stroke="black" stroke-width="2"/>
</svg>
