<svg width="24" height="25" viewBox="0 0 24 25" fill="none" xmlns="http://www.w3.org/2000/svg">
<path d="M10.6194 14.6582L5.23778 20.7812H3.49908L9.93657 13.4563L10.2079 13.1476L9.95755 12.8217L3.01444 3.78125H8.07994L12.2999 9.33572L12.6699 9.82281L13.0736 9.36324L17.9773 3.78125H19.7131L13.7424 10.5762L13.4726 10.8833L13.7199 11.2087L20.9922 20.7812H16.0744L11.3915 14.6837L11.021 14.2013L10.6194 14.6582ZM16.2785 19.7579L16.4286 19.9533H16.675H18.375H19.3828L18.7731 19.1508L7.80213 4.71077L7.65206 4.51325H7.404H5.58H4.56528L5.18352 5.31789L16.2785 19.7579Z" fill="black" stroke="black"/>
</svg>
