<svg width="24" height="24" viewBox="0 0 24 24" fill="none" xmlns="http://www.w3.org/2000/svg">
<path d="M11.9999 11.0002L7.99991 21.0002M9.97391 16.5722C11.0619 17.0547 12.2862 17.1332 13.4269 16.7937C14.5676 16.4543 15.5498 15.7191 16.197 14.7202C16.8441 13.7214 17.1137 12.5245 16.9574 11.3447C16.8011 10.1649 16.2291 9.07953 15.3441 8.28371C14.4592 7.4879 13.3194 7.03383 12.1297 7.00313C10.94 6.97243 9.7783 7.36712 8.85351 8.11624C7.92873 8.86537 7.30148 9.9198 7.08452 11.09C6.86757 12.2602 7.07513 13.4694 7.66991 14.5002" stroke="black" stroke-width="1.5" stroke-linecap="round" stroke-linejoin="round"/>
<path d="M12 22C17.5228 22 22 17.5228 22 12C22 6.47715 17.5228 2 12 2C6.47715 2 2 6.47715 2 12C2 17.5228 6.47715 22 12 22Z" stroke="black" stroke-width="1.5" stroke-linecap="round" stroke-linejoin="round"/>
</svg>
