<svg width="24" height="25" viewBox="0 0 24 25" fill="none" xmlns="http://www.w3.org/2000/svg">
<path d="M9.15299 5.65702C10.42 3.38502 11.053 2.24902 12 2.24902C12.947 2.24902 13.58 3.38502 14.847 5.65702L15.175 6.24502C15.535 6.89102 15.715 7.21402 15.995 7.42702C16.275 7.64002 16.625 7.71902 17.325 7.87702L17.961 8.02102C20.421 8.57802 21.65 8.85602 21.943 9.79702C22.235 10.737 21.397 11.718 19.72 13.679L19.286 14.186C18.81 14.743 18.571 15.022 18.464 15.366C18.357 15.711 18.393 16.083 18.465 16.826L18.531 17.503C18.784 20.12 18.911 21.428 18.145 22.009C17.379 22.59 16.227 22.06 13.925 21L13.328 20.726C12.674 20.424 12.347 20.274 12 20.274C11.653 20.274 11.326 20.424 10.672 20.726L10.076 21C7.77299 22.06 6.62099 22.59 5.85599 22.01C5.08899 21.428 5.21599 20.12 5.46899 17.503L5.53499 16.827C5.60699 16.083 5.64299 15.711 5.53499 15.367C5.42899 15.022 5.18999 14.743 4.71399 14.187L4.27999 13.679C2.60299 11.719 1.76499 10.738 2.05699 9.79702C2.34899 8.85602 3.57999 8.57702 6.03999 8.02102L6.67599 7.87702C7.37499 7.71902 7.72399 7.64002 8.00499 7.42702C8.28599 7.21402 8.46499 6.89102 8.82499 6.24502L9.15299 5.65702Z" fill="#9938A6"/>
</svg>
